<?xml version="1.0" encoding="UTF-8" standalone="no"?>
<svg
   xmlns:dc="http://purl.org/dc/elements/1.1/"
   xmlns:cc="http://creativecommons.org/ns#"
   xmlns:rdf="http://www.w3.org/1999/02/22-rdf-syntax-ns#"
   xmlns:svg="http://www.w3.org/2000/svg"
   xmlns="http://www.w3.org/2000/svg"
   xmlns:xlink="http://www.w3.org/1999/xlink"
   xmlns:sodipodi="http://sodipodi.sourceforge.net/DTD/sodipodi-0.dtd"
   xmlns:inkscape="http://www.inkscape.org/namespaces/inkscape"
   width="400"
   height="400"
   viewBox="0 0 105.83333 105.83333"
   version="1.1"
   id="svg8"
   inkscape:version="1.0.2 (e86c870879, 2021-01-15)"
   sodipodi:docname="tezostavern.svg">
  <defs
     id="defs2">
    <inkscape:path-effect
       effect="bspline"
       id="path-effect109"
       is_visible="true"
       lpeversion="1"
       weight="33.333333"
       steps="2"
       helper_size="0"
       apply_no_weight="true"
       apply_with_weight="true"
       only_selected="false" />
  </defs>
  <sodipodi:namedview
     id="base"
     pagecolor="#000000"
     bordercolor="#666666"
     borderopacity="1.0"
     inkscape:pageopacity="0"
     inkscape:pageshadow="2"
     inkscape:zoom="1.360095"
     inkscape:cx="136.32456"
     inkscape:cy="189.75377"
     inkscape:document-units="px"
     inkscape:current-layer="layer4"
     inkscape:document-rotation="0"
     showgrid="false"
     units="px"
     inkscape:pagecheckerboard="true"
     showborder="true"
     inkscape:showpageshadow="false"
     borderlayer="true"
     inkscape:window-width="1536"
     inkscape:window-height="784"
     inkscape:window-x="0"
     inkscape:window-y="0"
     inkscape:window-maximized="1" />
  <metadata
     id="metadata5">
    <rdf:RDF>
      <cc:Work
         rdf:about="">
        <dc:format>image/svg+xml</dc:format>
        <dc:type
           rdf:resource="http://purl.org/dc/dcmitype/StillImage" />
        <dc:title></dc:title>
      </cc:Work>
    </rdf:RDF>
  </metadata>
  <g
     inkscape:groupmode="layer"
     id="layer4"
     inkscape:label="Layer 3"
     style="display:inline">
    <circle
       style="display:inline;fill:#000080;stroke:#fff8f8;stroke-width:1.05833;stroke-linecap:round;stroke-linejoin:round;stroke-miterlimit:4;stroke-dasharray:none;stop-color:#000000"
       id="path443"
       cx="53.061455"
       cy="53.051666"
       r="50.743855" />
    <path
       id="path1335"
       style="fill:none;stroke:none;stroke-width:0.264583;stroke-linecap:round;stroke-linejoin:round;stroke-miterlimit:4;stroke-dasharray:none;stroke-opacity:1;stop-color:#000000"
       d="M 90.259121,52.897713 A 37.214173,37.214173 0 0 1 53.044949,90.111885 37.214173,37.214173 0 0 1 15.830776,52.897713 37.214173,37.214173 0 0 1 53.044949,15.68354 37.214173,37.214173 0 0 1 90.259121,52.897713 Z" />
    <text
       xml:space="preserve"
       style="font-style:normal;font-weight:normal;font-size:16.9333px;line-height:1.25;font-family:sans-serif;fill:#f9f9f9;fill-opacity:1;stroke:none;stroke-width:0;stroke-miterlimit:4;stroke-dasharray:none"
       id="text1340"
       transform="rotate(-120,53.099842,53.955818)"><textPath
         xlink:href="#path1335"
         id="textPath1347">Tezos Tavern</textPath></text>
    <path
       id="path1335-1"
       style="fill:none;stroke:#fff8f8;stroke-width:1.05833;stroke-linecap:round;stroke-linejoin:round;stroke-miterlimit:4;stroke-dasharray:none;stroke-opacity:1;stop-color:#000000"
       d="M 86.628402,52.897713 A 33.583454,33.583454 0 0 1 53.044949,86.481166 33.583454,33.583454 0 0 1 19.461495,52.897713 33.583454,33.583454 0 0 1 53.044949,19.314259 33.583454,33.583454 0 0 1 86.628402,52.897713 Z" />
  </g>
  <g
     inkscape:groupmode="layer"
     id="layer2"
     inkscape:label="Layer 2"
     style="display:inline">
    <path
       d="m 43.581293,81.448551 c -4.406353,0 -7.622369,-1.113573 -9.648048,-3.340395 -1.876685,-1.885105 -2.965965,-4.472753 -3.029125,-7.197735 -0.023,-0.827891 0.160007,-1.647686 0.53055,-2.379055 0.345603,-0.631607 0.845058,-1.156004 1.446867,-1.519097 0.699627,-0.366332 1.470836,-0.556786 2.252734,-0.556786 0.781898,0 1.553107,0.190454 2.252734,0.556786 0.60116,0.361798 1.098025,0.886518 1.439093,1.519097 0.381232,0.727806 0.570714,1.548896 0.549337,2.379055 0.03952,0.991462 -0.23159,1.968996 -0.771533,2.783608 -0.450223,0.664646 -1.093491,1.158595 -1.83393,1.407675 0.72392,0.966846 1.748096,1.636998 2.894383,1.893204 1.282325,0.390625 2.610644,0.591443 3.945766,0.59695 1.768177,0.01619 3.499429,-0.526988 4.96897,-1.558937 1.523955,-1.129768 2.660849,-2.744416 3.241604,-4.605229 0.735904,-2.214514 1.09511,-4.547575 1.061101,-6.892944 0.05927,-2.444807 -0.333942,-4.878602 -1.157623,-7.166317 -0.619948,-1.830042 -1.796357,-3.39481 -3.347845,-4.453643 -1.442332,-0.957452 -3.116578,-1.459823 -4.823214,-1.447515 -1.487031,0.132152 -2.920942,0.642944 -4.177679,1.488003 l -3.097793,1.629547 V 52.955276 L 50.199569,33.361513 H 30.90412 v 20.332581 c -0.05474,1.467273 0.315156,2.917704 1.0611,4.160189 0.360826,0.541563 0.848946,0.975915 1.416745,1.261596 0.568123,0.285357 1.196491,0.412002 1.82486,0.367952 7.316143,0 18.038829,-0.122749 30.743458,-0.122749 0.850132,0 3.248006,3.903553 -1.355975,3.903553 -6.489189,0 -26.081821,0.05548 -29.414691,0.05548 -4.177679,0 -7.071738,-0.863521 -8.682499,-2.591211 -0.827892,-0.954861 -1.465653,-2.073292 -1.876684,-3.289865 -0.410707,-1.216574 -0.586261,-2.506997 -0.515975,-3.795476 v -20.28205 h -12.27128 l 2.45707,-3.777855 h 9.85988 v -8.613767 l -2.257268,-2.369986 v -1.931618 h 6.55058 l 2.460679,1.336255 v 11.579116 l 25.48909,-0.08133 2.537767,2.672089 -15.629534,16.477184 c 0.944172,-0.398399 1.938549,-0.650718 2.951712,-0.74886 2.005921,0.09199 3.962933,0.678249 5.712648,1.710847 2.026327,1.010248 3.734258,2.609349 4.920709,4.606848 1.063368,1.691089 1.815791,3.575871 2.219048,5.556851 0.331675,1.562824 0.509496,3.157066 0.530874,4.758111 0.01036,3.055037 -0.65007,6.07153 -1.92948,8.815622 -1.213658,2.65761 -3.25618,4.800217 -5.789088,6.073473 -2.592831,1.340628 -5.446077,2.033129 -8.336573,2.02406 z"
       fill="#ffffff"
       id="path321"
       style="stroke-width:3.23901"
       sodipodi:nodetypes="sccccsccccccccccccccccccccccssccccccccccccccccccccccccss" />
    <g
       id="layer1-6"
       inkscape:label="Layer 1"
       style="fill:none"
       transform="matrix(3.2390132,0,0,3.2390132,-5.9996085,-2.2116637)" />
    <path
       d="m 80.205305,63.186752 -9.603028,6.5e-5 v 20.332581 c -0.05474,1.467274 0.315155,2.917704 1.061097,4.160189 0.360823,0.541563 0.848941,0.975915 1.41674,1.261596 0.568119,0.285358 1.196484,0.412002 1.824851,0.367952 1.160857,-0.02462 2.283494,-0.439858 3.202721,-1.184184 1.041988,-0.801007 1.948575,-1.779512 2.682215,-2.89503 0.0661,-0.195636 0.18786,-0.365036 0.34884,-0.485528 0.12924,-0.117252 0.29443,-0.181708 0.46513,-0.182032 0.33522,0.03207 0.65265,0.173611 0.90723,0.404552 0.32228,0.377993 0.49784,0.869028 0.49169,1.376581 -0.0373,0.340744 -0.0952,0.678897 -0.17362,1.012192 -0.68537,1.740322 -1.83424,3.23707 -3.30929,4.310478 -1.370088,0.97235 -2.987968,1.488 -4.642125,1.47926 -4.177661,0 -7.071708,-0.86352 -8.682462,-2.591213 C 65.367405,89.59935 64.729647,88.480919 64.318617,87.264346 63.907912,86.047772 63.732359,84.757349 63.802645,83.46887 V 63.186817 h -9.814169 v -3.777855 h 9.859838 v -8.613767 l -2.257258,-2.369986 v -1.931618 h 6.550552 l 2.460669,1.336255 v 11.579117 l 11.028663,-0.08133 z"
       fill="#ffffff"
       id="path439-5"
       style="display:inline;fill:#ffffff;stroke-width:3.239"
       sodipodi:nodetypes="cccccccccccccccccccccccccccccc" />
    <path
       style="fill:none;stroke:none;stroke-width:0.264583px;stroke-linecap:butt;stroke-linejoin:miter;stroke-opacity:1"
       d="M 51.007146,17.114767 C 88.586713,14.413371 101.5152,58.039556 85.553878,75.486113"
       id="path503"
       sodipodi:nodetypes="cc" />
  </g>
</svg>
